<?xml version="1.0" standalone="no"?>
<!DOCTYPE svg PUBLIC "-//W3C//DTD SVG 20010904//EN"
 "http://www.w3.org/TR/2001/REC-SVG-20010904/DTD/svg10.dtd">
<svg version="1.0" xmlns="http://www.w3.org/2000/svg"
 width="500.000000pt" height="500.000000pt" viewBox="0 0 500.000000 500.000000"
 preserveAspectRatio="xMidYMid meet">
<metadata>
Created by potrace 1.11, written by Peter Selinger 2001-2013
</metadata>
<g transform="translate(0.000000,500.000000) scale(0.100000,-0.100000)"
fill="#000000" stroke="none">
<path d="M2790 2800 l0 -1620 200 0 200 0 1 678 c0 372 2 693 4 712 15 199 64
353 143 453 75 94 223 181 362 213 47 11 215 13 270 2 121 -22 231 -99 279
-195 24 -48 47 -142 55 -223 3 -30 5 -412 6 -847 l0 -793 200 0 200 0 0 823
c0 844 -4 936 -42 1072 -7 22 -12 42 -12 45 -4 26 -47 117 -78 167 -132 210
-385 316 -713 300 -182 -9 -329 -53 -450 -137 -51 -35 -166 -146 -202 -195
l-22 -30 -1 598 0 597 -200 0 -200 0 0 -1620z"/>
<path d="M1135 3583 c-157 -19 -306 -71 -431 -148 -93 -58 -243 -204 -304
-295 -100 -151 -178 -347 -206 -520 -4 -25 -9 -56 -11 -70 -3 -14 -6 -106 -8
-205 -5 -253 19 -407 95 -603 110 -286 402 -546 685 -611 28 -6 61 -14 75 -17
46 -11 304 -13 365 -3 33 5 74 11 90 14 116 18 249 72 375 154 177 114 363
394 405 609 l7 32 -195 0 -194 0 -27 -70 c-81 -207 -227 -338 -432 -388 -98
-25 -286 -23 -378 2 -264 73 -419 312 -452 694 l-6 72 857 0 858 0 -7 178 c-3
97 -8 193 -11 212 -2 19 -7 58 -10 85 -8 62 -50 235 -69 278 -59 141 -114 226
-202 313 -133 133 -341 238 -549 277 -66 13 -250 18 -320 10z m271 -349 c273
-57 438 -273 478 -626 l6 -48 -646 0 -646 0 6 59 c33 309 228 552 492 615 77
18 224 18 310 0z"/>
</g>
</svg>
